<svg width="27" height="27" viewBox="0 0 27 27" fill="none" xmlns="http://www.w3.org/2000/svg">
<path d="M18.9114 5.38281H2.67749C2.42848 5.38281 2.22656 5.58473 2.22656 5.83374V15.3035H3.57936C4.07743 15.3035 4.48122 15.7072 4.48122 16.2053C4.48122 16.7034 4.07738 17.1072 3.57936 17.1072H2.22656V18.46C2.22656 18.709 2.42848 18.9109 2.67749 18.9109H19.3623V5.83374C19.3623 5.58473 19.1604 5.38281 18.9114 5.38281Z" fill="#FE3F3F"/>
<path d="M24.7726 12.5977H19.3613V18.9108H26.5763V14.4014C26.5763 13.4052 25.7688 12.5977 24.7726 12.5977Z" fill="#FE3F3F"/>
<path d="M19 14H24.065C24.5814 14 25 14.407 25 14.9091V19H19V14Z" fill="#E91B1A"/>
<path d="M22.9688 7.18652H19.3613V8.9903H24.3217V8.53937C24.3217 7.79218 23.716 7.18652 22.9688 7.18652Z" fill="#FE3F3F"/>
<path d="M24.7726 12.5977L23.8707 8.99023H19.3613V12.5977H24.7726Z" fill="#EDEDED"/>
<path d="M24.7734 14.4014H26.5772V16.2051H25.6754C25.1772 16.2051 24.7735 15.8014 24.7735 15.3033V14.4014H24.7734Z" fill="#F1F4FB"/>
<path d="M22.5179 15.7539C21.1588 15.7539 19.9764 16.5062 19.3613 17.6163V18.9105H26.0942C25.8719 17.1314 24.3572 15.7539 22.5179 15.7539Z" fill="#9E0100"/>
<path d="M25.1484 16.8965V18.911H26.0943C25.9975 18.1364 25.6554 17.4383 25.1484 16.8965Z" fill="#E91B1A"/>
<path d="M22.5184 21.6168C23.7636 21.6168 24.7731 20.6074 24.7731 19.3621C24.7731 18.1169 23.7636 17.1074 22.5184 17.1074C21.2731 17.1074 20.2637 18.1169 20.2637 19.3621C20.2637 20.6074 21.2731 21.6168 22.5184 21.6168Z" fill="#5B5D6E"/>
<path d="M21.1651 10.343H24.2089L23.8707 8.99023H19.3613V12.5977H20.7141V10.794C20.7141 10.5449 20.916 10.343 21.1651 10.343Z" fill="#FE3F3F"/>
<path d="M7.63785 15.7539C6.49915 15.7539 5.48528 16.2827 4.82421 17.1067H3.57941H2.22656V18.4595C2.22656 18.7085 2.42848 18.9104 2.67749 18.9104H19.3623V17.1066H10.4515C9.79041 16.2827 8.77654 15.7539 7.63785 15.7539Z" fill="#9E0100"/>
<path d="M7.63752 21.6168C8.88277 21.6168 9.89223 20.6074 9.89223 19.3621C9.89223 18.1169 8.88277 17.1074 7.63752 17.1074C6.39228 17.1074 5.38281 18.1169 5.38281 19.3621C5.38281 20.6074 6.39228 21.6168 7.63752 21.6168Z" fill="#5B5D6E"/>
<path d="M25.1099 12.2004L24.4107 9.40368C24.6019 9.36307 24.7453 9.19348 24.7453 8.99029V8.53936C24.7453 7.56029 23.9487 6.76379 22.9697 6.76379H19.785V5.83366C19.785 5.35188 19.3931 4.95996 18.9113 4.95996H2.67743C2.19565 4.95996 1.80373 5.35188 1.80373 5.83366V13.4997C1.80373 13.7331 1.99299 13.9224 2.2265 13.9224C2.46001 13.9224 2.64927 13.7332 2.64927 13.4997V5.83366C2.64927 5.81811 2.66187 5.8055 2.67743 5.8055H18.9112C18.9268 5.8055 18.9394 5.81811 18.9394 5.83366V13.4998C18.9394 13.7332 19.1287 13.9225 19.3622 13.9225C19.5956 13.9225 19.7849 13.7333 19.7849 13.4998V13.0205H24.772L24.7731 13.0206L24.7742 13.0206C25.3879 13.0209 25.909 13.4238 26.088 13.9788H24.7734C24.5399 13.9788 24.3506 14.1681 24.3506 14.4016V15.3034C24.3506 16.0339 24.9448 16.6281 25.6753 16.6281H26.1544V18.4882H25.049C24.6859 17.4397 23.6891 16.6844 22.5187 16.6844C21.3482 16.6844 20.3515 17.4397 19.9884 18.4882H19.7848V15.3034C19.7848 15.07 19.5956 14.8807 19.3621 14.8807C19.1286 14.8807 18.9393 15.0699 18.9393 15.3034V18.4881H10.1681C9.80496 17.4396 8.80822 16.6843 7.63778 16.6843C6.46734 16.6843 5.47056 17.4396 5.10748 18.4881H2.67743C2.66187 18.4881 2.64927 18.4755 2.64927 18.46V17.5299H4.48121C4.71466 17.5299 4.90398 17.3406 4.90398 17.1071C4.90398 16.8737 4.71472 16.6843 4.48121 16.6843H0.422772C0.189316 16.6843 0 16.8736 0 17.1071C0 17.3406 0.189264 17.5299 0.422772 17.5299H1.80378V18.46C1.80378 18.9417 2.1957 19.3337 2.67748 19.3337H4.96109C4.96099 19.3431 4.96035 19.3524 4.96035 19.3618C4.96035 20.8382 6.16149 22.0393 7.63778 22.0393C9.11408 22.0393 10.3152 20.8382 10.3152 19.3618C10.3152 19.3523 10.3146 19.3431 10.3145 19.3337H19.842C19.8419 19.3431 19.8413 19.3524 19.8413 19.3618C19.8413 20.8382 21.0424 22.0393 22.5187 22.0393C23.995 22.0393 25.1961 20.8382 25.1961 19.3618C25.1961 19.3523 25.1955 19.3431 25.1954 19.3337H26.5772C26.8106 19.3337 26.9999 19.1444 26.9999 18.9109V14.4015C27 13.2882 26.1786 12.3631 25.1099 12.2004ZM19.785 9.41301H23.5415L24.232 12.175H19.785V9.41301ZM22.9697 7.60928C23.4826 7.60928 23.8998 8.02652 23.8998 8.53936V8.56752H19.785V7.60928H22.9697ZM7.63778 21.1938C6.62766 21.1938 5.80584 20.3721 5.80584 19.3619C5.80584 18.3517 6.62766 17.5299 7.63778 17.5299C8.64791 17.5299 9.46972 18.3517 9.46972 19.3619C9.46972 20.3721 8.64791 21.1938 7.63778 21.1938ZM22.5188 21.1938C21.5087 21.1938 20.6869 20.3721 20.6869 19.3619C20.6869 18.3517 21.5087 17.5299 22.5188 17.5299C23.5289 17.5299 24.3507 18.3517 24.3507 19.3619C24.3507 20.3721 23.5289 21.1938 22.5188 21.1938ZM25.6754 15.7825C25.4112 15.7825 25.1962 15.5676 25.1962 15.3034V14.8242H26.1545V15.7825L25.6754 15.7825Z" fill="black"/>
<path d="M7.63738 18.4883C7.15559 18.4883 6.76367 18.8802 6.76367 19.362C6.76367 19.8438 7.15559 20.2357 7.63738 20.2357C8.11916 20.2357 8.51108 19.8438 8.51108 19.362C8.51108 18.8802 8.11916 18.4883 7.63738 18.4883Z" fill="black"/>
<path d="M22.5182 18.4883C22.0365 18.4883 21.6445 18.8802 21.6445 19.362C21.6445 19.8438 22.0365 20.2357 22.5182 20.2357C23 20.2357 23.3919 19.8438 23.3919 19.362C23.3919 18.8802 23 18.4883 22.5182 18.4883Z" fill="black"/>
<path d="M10.8223 17.1073C10.8223 17.3408 11.0115 17.5301 11.245 17.5301H17.5581C17.7916 17.5301 17.9809 17.3408 17.9809 17.1073C17.9809 16.8739 17.7916 16.6846 17.5581 16.6846H11.245C11.0115 16.6846 10.8223 16.8739 10.8223 17.1073Z" fill="black"/>
<path d="M1.32512 15.7264H6.7364C6.96986 15.7264 7.15917 15.5371 7.15917 15.3036C7.15917 15.0702 6.96991 14.8809 6.7364 14.8809H1.32512C1.09166 14.8809 0.902344 15.0701 0.902344 15.3036C0.902344 15.5371 1.09166 15.7264 1.32512 15.7264Z" fill="black"/>
<path d="M14.103 9.14235L10.3435 12.9018L8.3877 10.9461C8.22259 10.781 7.95491 10.781 7.78985 10.9461C7.62474 11.1112 7.62474 11.3788 7.78985 11.5439L10.0446 13.7986C10.1271 13.8812 10.2353 13.9225 10.3435 13.9225C10.4516 13.9225 10.5598 13.8812 10.6424 13.7986L14.7008 9.7402C14.8659 9.57509 14.8659 9.30746 14.7008 9.14235C14.5358 8.97729 14.2681 8.97729 14.103 9.14235Z" fill="black"/>
</svg>
