<svg width="27" height="27" viewBox="0 0 27 27" fill="none" xmlns="http://www.w3.org/2000/svg">
<g clip-path="url(#clip0_825_5192)">
<path d="M22.7502 12.2796C24.8785 12.2796 26.6038 10.5543 26.6038 8.42594C26.6038 6.29761 24.8785 4.57227 22.7502 4.57227C20.6218 4.57227 18.8965 6.29761 18.8965 8.42594C18.8965 10.5543 20.6218 12.2796 22.7502 12.2796Z" fill="#E91B1A"/>
<path d="M23.3368 4.61621C24.0519 5.31584 24.4957 6.29158 24.4957 7.37105C24.4957 9.49941 22.7704 11.2247 20.642 11.2247C20.443 11.2247 20.2475 11.2096 20.0566 11.1805C20.7515 11.8603 21.7025 12.2794 22.7514 12.2794C24.8797 12.2794 26.6051 10.554 26.6051 8.42574C26.6051 6.4964 25.1873 4.89823 23.3368 4.61621Z" fill="#FE3F3F"/>
<path d="M18.8961 8.42597C18.8961 8.38474 18.8968 8.34366 18.8981 8.30273H2.26613C1.23248 8.30273 0.394531 9.14068 0.394531 10.1743V20.5563C0.394531 21.59 1.23248 22.4279 2.26613 22.4279H20.8783C21.9119 22.4279 22.7498 21.59 22.7498 20.5563V12.2796C20.6215 12.2797 18.8961 10.5543 18.8961 8.42597Z" fill="#FE3F3F"/>
<path d="M20.6407 11.6514V16.4735C20.6407 19.1794 18.4471 21.373 15.7412 21.373H0.582031C0.885412 21.9973 1.52561 22.4277 2.26637 22.4277H20.8785C21.9121 22.4277 22.7501 21.5897 22.7501 20.5561V12.2794C21.9714 12.2794 21.2467 12.0485 20.6407 11.6514Z" fill="#E91B1A"/>
<path d="M20.8014 18.8735H18.488C18.458 18.8735 18.4336 18.8491 18.4336 18.8191V17.5574C18.4336 17.5273 18.458 17.5029 18.488 17.5029H20.8014C20.8315 17.5029 20.8558 17.5273 20.8558 17.5574V18.8191C20.8559 18.8491 20.8315 18.8735 20.8014 18.8735Z" fill="#F6F9F9"/>
<path d="M20.8009 17.5029H20.5323C20.4281 17.9906 20.2512 18.4515 20.0137 18.8735H20.8009C20.831 18.8735 20.8554 18.8491 20.8554 18.8191V17.5574C20.8554 17.5273 20.831 17.5029 20.8009 17.5029Z" fill="#E7ECF1"/>
<path d="M24.1094 6.74164L22.2185 8.63249C22.1763 8.67467 22.1079 8.67467 22.0657 8.63249L21.3907 7.95748C21.3486 7.9153 21.2802 7.9153 21.238 7.95748L20.3813 8.81421C20.3391 8.8564 20.3391 8.92479 20.3813 8.96698L22.0658 10.6515C22.108 10.6937 22.1764 10.6937 22.2186 10.6515L25.119 7.75113C25.1611 7.70895 25.1611 7.64055 25.119 7.59836L24.2622 6.74164C24.2199 6.6994 24.1515 6.6994 24.1094 6.74164Z" fill="#F6F9F9"/>
<path d="M24.4721 6.95117C24.487 7.08913 24.4947 7.22929 24.4947 7.3712C24.4947 7.78743 24.4287 8.18822 24.3066 8.56374L25.1192 7.75115C25.1614 7.70896 25.1614 7.64057 25.1192 7.59838L24.4721 6.95117Z" fill="#E7ECF1"/>
<path d="M19.9498 11.0742H0.394531V13.6178H22.7498V12.2801C21.6469 12.2801 20.6522 11.8168 19.9498 11.0742Z" fill="#E91B1A"/>
<path d="M20.6406 11.6514V13.617H22.75V12.2794C22.7497 12.2794 22.7503 12.2794 22.75 12.2794C21.9716 12.2793 21.2464 12.0484 20.6406 11.6514Z" fill="#E91B1A"/>
<path d="M9.43652 17.793C9.2181 17.793 9.04102 17.97 9.04102 18.1885C9.04102 18.407 9.2181 18.584 9.43652 18.584H11.0641C11.2825 18.584 11.4596 18.407 11.4596 18.1885C11.4596 17.97 11.2825 17.793 11.0641 17.793H9.43652Z" fill="black"/>
<path d="M12.4189 17.793C12.2005 17.793 12.0234 17.97 12.0234 18.1885C12.0234 18.407 12.2005 18.584 12.4189 18.584H14.0465C14.2649 18.584 14.442 18.407 14.442 18.1885C14.442 17.97 14.2649 17.793 14.0465 17.793H12.4189Z" fill="black"/>
<path d="M15.3994 17.793C15.181 17.793 15.0039 17.97 15.0039 18.1885C15.0039 18.407 15.181 18.584 15.3994 18.584H17.027C17.2454 18.584 17.4225 18.407 17.4225 18.1885C17.4225 17.97 17.2454 17.793 17.027 17.793H15.3994Z" fill="black"/>
<path d="M18.489 17.1074C18.2409 17.1074 18.0391 17.3092 18.0391 17.5574V18.8191C18.0391 19.0672 18.2409 19.269 18.489 19.269H20.8024C21.0506 19.269 21.2524 19.0672 21.2524 18.8191V17.5574C21.2524 17.3092 21.0505 17.1074 20.8024 17.1074H18.489ZM20.4614 18.478H18.8301V17.8985H20.4614V18.478Z" fill="black"/>
<path d="M22.4993 10.9313L25.3998 8.03084C25.5965 7.83404 25.5965 7.51552 25.3997 7.31877L24.5432 6.46226C24.3466 6.2654 24.0278 6.26503 23.8309 6.46205L22.1433 8.1496L21.6715 7.67784C21.4751 7.48162 21.1557 7.48177 20.9594 7.67789L20.1028 8.53456C19.906 8.73126 19.9058 9.04994 20.1027 9.24679L21.7871 10.9311C21.9839 11.1283 22.3029 11.128 22.4993 10.9313ZM21.3155 8.44054L21.7871 8.91204C21.9839 9.10916 22.3028 9.109 22.4993 8.91225L24.1869 7.22469L24.6371 7.67484L22.1433 10.1686L20.8653 8.89068L21.3155 8.44054Z" fill="black"/>
<path d="M22.7508 4.17676C21.6752 4.17676 20.6488 4.57954 19.8608 5.31086C19.7007 5.45942 19.6914 5.70964 19.8399 5.86979C19.9885 6.02995 20.2387 6.03923 20.3989 5.89068C21.0402 5.29557 21.8754 4.96783 22.7508 4.96783C24.6576 4.96783 26.209 6.51917 26.209 8.42599C26.209 10.3328 24.6576 11.8842 22.7508 11.8842C20.8439 11.8842 19.2926 10.3328 19.2926 8.42599C19.2926 8.0424 19.3549 7.66572 19.4778 7.30649C19.5484 7.09977 19.4382 6.87491 19.2315 6.8043C19.0248 6.73374 18.8 6.8439 18.7293 7.05057C18.6341 7.3289 18.5685 7.61557 18.533 7.90729H2.2671C1.01704 7.90719 0 8.92428 0 10.1743V20.5563C0 21.8064 1.01704 22.8234 2.2671 22.8234H20.8792C22.1293 22.8234 23.1463 21.8064 23.1463 20.5563V17.7652C23.1463 17.5468 22.9692 17.3697 22.7508 17.3697C22.5323 17.3697 22.3553 17.5468 22.3553 17.7652V20.5563C22.3553 21.3703 21.6931 22.0324 20.8792 22.0324H2.2671C1.4532 22.0324 0.791016 21.3702 0.791016 20.5563V14.0128H3.06381C3.28224 14.0128 3.45932 13.8357 3.45932 13.6173C3.45932 13.3988 3.28224 13.2218 3.06381 13.2218H0.791016V11.4692H19.7882C20.4654 12.1287 21.3613 12.5647 22.3553 12.6569V13.2218H4.90952C4.69109 13.2218 4.51401 13.3988 4.51401 13.6173C4.51401 13.8358 4.69109 14.0128 4.90952 14.0128H22.3553V15.9196C22.3553 16.1381 22.5324 16.3151 22.7508 16.3151C22.9692 16.3151 23.1463 16.1381 23.1463 15.9196V12.6569C25.3046 12.4567 27 10.6356 27 8.42594C27 6.08295 25.0938 4.17676 22.7508 4.17676ZM0.791016 10.1743C0.791016 9.36039 1.4532 8.69826 2.2671 8.69826H18.5102C18.5562 9.42203 18.7842 10.0971 19.1489 10.6782H0.791016V10.1743Z" fill="black"/>
</g>
<defs>
<clipPath id="clip0_825_5192">
<rect width="27" height="27" fill="white"/>
</clipPath>
</defs>
</svg>
