<svg width="30" height="30" viewBox="0 0 30 30" fill="none" xmlns="http://www.w3.org/2000/svg">
<g clip-path="url(#clip0_629_3700)">
<path d="M29.8017 14.5193L22.9837 7.70122C22.7388 7.41523 22.3084 7.38189 22.0224 7.62687C21.7364 7.87179 21.703 8.30221 21.948 8.5882C21.9709 8.61486 21.9957 8.63976 22.0224 8.66256L27.6745 14.3216H0.681785C0.305268 14.3216 0 14.6268 0 15.0034C0 15.38 0.305268 15.6852 0.681785 15.6852H27.6745L22.0224 21.3373C21.7364 21.5823 21.703 22.0127 21.948 22.2987C22.193 22.5847 22.6234 22.618 22.9093 22.373C22.936 22.3502 22.9609 22.3253 22.9837 22.2987L29.8018 15.4806C30.0661 15.2147 30.0661 14.7853 29.8017 14.5193Z" fill="black"/>
</g>
<defs>
<clipPath id="clip0_629_3700">
<rect width="30" height="30" fill="white"/>
</clipPath>
</defs>
</svg>
