<svg width="20" height="20" viewBox="0 0 20 20" fill="none" xmlns="http://www.w3.org/2000/svg">
<path d="M7.55552 2.15869H3.23806C2.64194 2.15869 2.15869 2.64194 2.15869 3.23806V7.55552C2.15869 8.15163 2.64194 8.63488 3.23806 8.63488H7.55552C8.15163 8.63488 8.63488 8.15163 8.63488 7.55552V3.23806C8.63488 2.64194 8.15163 2.15869 7.55552 2.15869Z" fill="#E91B1A"/>
<path d="M16.1903 2.15869H11.8728C11.2767 2.15869 10.7935 2.64194 10.7935 3.23806V7.55552C10.7935 8.15163 11.2767 8.63488 11.8728 8.63488H16.1903C16.7864 8.63488 17.2696 8.15163 17.2696 7.55552V3.23806C17.2696 2.64194 16.7864 2.15869 16.1903 2.15869Z" fill="#E91B1A"/>
<path d="M7.55552 10.7935H3.23806C2.64194 10.7935 2.15869 11.2767 2.15869 11.8728V16.1903C2.15869 16.7864 2.64194 17.2696 3.23806 17.2696H7.55552C8.15163 17.2696 8.63488 16.7864 8.63488 16.1903V11.8728C8.63488 11.2767 8.15163 10.7935 7.55552 10.7935Z" fill="#E91B1A"/>
<path d="M16.1903 10.7935H11.8728C11.2767 10.7935 10.7935 11.2767 10.7935 11.8728V16.1903C10.7935 16.7864 11.2767 17.2696 11.8728 17.2696H16.1903C16.7864 17.2696 17.2696 16.7864 17.2696 16.1903V11.8728C17.2696 11.2767 16.7864 10.7935 16.1903 10.7935Z" fill="#E91B1A"/>
</svg>
