<svg width="24" height="24" viewBox="0 0 24 24" fill="none" xmlns="http://www.w3.org/2000/svg">
<g clip-path="url(#clip0_629_3348)">
<path d="M19.1111 21H4.88889C4.65314 21 4.42705 20.9052 4.26035 20.7364C4.09365 20.5676 4 20.3387 4 20.1V3.9C4 3.66131 4.09365 3.43239 4.26035 3.2636C4.42705 3.09482 4.65314 3 4.88889 3H19.1111C19.3469 3 19.573 3.09482 19.7397 3.2636C19.9064 3.43239 20 3.66131 20 3.9V20.1C20 20.3387 19.9064 20.5676 19.7397 20.7364C19.573 20.9052 19.3469 21 19.1111 21ZM9.33333 6.6H7.55556V8.4C7.55556 9.59347 8.02381 10.7381 8.8573 11.582C9.6908 12.4259 10.8213 12.9 12 12.9C13.1787 12.9 14.3092 12.4259 15.1427 11.582C15.9762 10.7381 16.4444 9.59347 16.4444 8.4V6.6H14.6667V8.4C14.6667 9.11608 14.3857 9.80284 13.8856 10.3092C13.3855 10.8155 12.7072 11.1 12 11.1C11.2928 11.1 10.6145 10.8155 10.1144 10.3092C9.61428 9.80284 9.33333 9.11608 9.33333 8.4V6.6Z" fill="#282627"/>
</g>
<defs>
<clipPath id="clip0_629_3348">
<rect width="24" height="24" fill="white"/>
</clipPath>
</defs>
</svg>
