<svg width="16" height="18" viewBox="0 0 16 18" fill="none" xmlns="http://www.w3.org/2000/svg">
<path d="M13 11.5335C12.012 11.5335 11.1413 12.0195 10.5944 12.7586L5.86633 10.3376C5.94483 10.07 6 9.79273 6 9.50013C6 9.10326 5.91863 8.72596 5.77807 8.37893L10.7262 5.40133C11.2769 6.0476 12.0863 6.4668 13 6.4668C14.6543 6.4668 16 5.1211 16 3.4668C16 1.8125 14.6543 0.466797 13 0.466797C11.3457 0.466797 10 1.8125 10 3.4668C10 3.84803 10.0785 4.20966 10.2087 4.5454L5.24583 7.53173C4.69563 6.90466 3.8979 6.50013 3 6.50013C1.3457 6.50013 0 7.84583 0 9.50013C0 11.1544 1.3457 12.5001 3 12.5001C4.00433 12.5001 4.8897 11.9998 5.4345 11.2399L10.147 13.6531C10.0602 13.9333 10 14.2251 10 14.5335C10 16.1878 11.3457 17.5335 13 17.5335C14.6543 17.5335 16 16.1878 16 14.5335C16 12.8792 14.6543 11.5335 13 11.5335Z" fill="#282627"/>
</svg>
