<svg width="27" height="27" viewBox="0 0 27 27" fill="none" xmlns="http://www.w3.org/2000/svg">
<path d="M23.1807 0.395508H22.2195H5.42527H3.74584C2.81835 0.395508 2.06641 1.14739 2.06641 2.07494V19.2485C2.06641 19.9665 2.64849 20.5486 3.36657 20.5486H5.42527V25.8357C5.42527 26.0198 5.55157 26.1799 5.73065 26.2227L7.28331 26.5937C7.34412 26.6083 7.40745 26.6083 7.46825 26.5937L9.2338 26.1718C9.2946 26.1573 9.35799 26.1573 9.41879 26.1718L11.1841 26.5937C11.2449 26.6083 11.3083 26.6083 11.3691 26.5937L13.1344 26.1718C13.1952 26.1573 13.2586 26.1573 13.3194 26.1718L15.0849 26.5937C15.1457 26.6083 15.2091 26.6083 15.2699 26.5937L17.0355 26.1718C17.0963 26.1573 17.1596 26.1573 17.2204 26.1718L18.9861 26.5937C19.0469 26.6083 19.1103 26.6083 19.1711 26.5937L20.9367 26.1718C20.9975 26.1573 21.0609 26.1573 21.1217 26.1718L22.8876 26.5937C22.9484 26.6082 23.0117 26.6082 23.0725 26.5937L24.6255 26.2226C24.8046 26.1798 24.9309 26.0198 24.9309 25.8357V2.14566C24.9309 1.17909 24.1473 0.395508 23.1807 0.395508Z" fill="#FE3F3F"/>
<path d="M3.74584 0.395508C2.81829 0.395508 2.06641 1.14739 2.06641 2.07494V19.2485C2.06641 19.9665 2.64849 20.5486 3.36657 20.5486H5.42527V2.07494C5.42527 1.14745 4.67333 0.395508 3.74584 0.395508Z" fill="#E91B1A"/>
<path d="M23.1809 0.395508H22.2197H22.0176V26.1497L21.5234 26.2678L22.8877 26.5938C22.9485 26.6083 23.0119 26.6083 23.0727 26.5938L24.6256 26.2227C24.8047 26.1799 24.931 26.0198 24.931 25.8357V2.14566C24.931 1.17909 24.1474 0.395508 23.1809 0.395508Z" fill="#E91B1A"/>
<path d="M7.57622 3.39945C7.57622 3.24768 7.73364 3.16895 7.89669 3.16895H8.98181C9.56647 3.16895 10.1119 3.36011 10.1119 4.15851C10.1119 4.61951 9.93192 4.9231 9.63392 5.05241C9.97685 5.18735 10.213 5.40662 10.213 5.96882V6.0869C10.213 6.96392 9.72388 7.2788 9.08854 7.2788H7.89664C7.69989 7.2788 7.57617 7.17201 7.57617 7.05389V3.39945H7.57622ZM8.30148 4.76569H8.93113C9.23472 4.76569 9.3809 4.56894 9.3809 4.28217C9.3809 3.98981 9.21226 3.80993 8.92549 3.80993H8.30143L8.30148 4.76569ZM8.93677 6.63781C9.2797 6.63781 9.4821 6.45229 9.4821 6.02504V5.93507C9.4821 5.49659 9.2797 5.33912 8.93677 5.33912H8.30148V6.63781H8.93677Z" fill="black"/>
<path d="M10.7344 3.39386C10.7344 3.23645 10.9143 3.16895 11.0998 3.16895C11.2798 3.16895 11.4653 3.23639 11.4653 3.39386V7.0483C11.4653 7.20012 11.2798 7.2788 11.0998 7.2788C10.9143 7.2788 10.7344 7.20012 10.7344 7.0483V3.39386Z" fill="black"/>
<path d="M12.4611 7.2788C12.298 7.2788 12.1406 7.20012 12.1406 7.0483V3.39386C12.1406 3.23645 12.3206 3.16895 12.5061 3.16895C12.686 3.16895 12.8715 3.23639 12.8715 3.39386V6.63787H14.2434C14.3895 6.63787 14.4626 6.79528 14.4626 6.95833C14.4626 7.11574 14.3895 7.2788 14.2434 7.2788H12.4611Z" fill="black"/>
<path d="M15.1818 7.2788C15.0187 7.2788 14.8613 7.20012 14.8613 7.0483V3.39386C14.8613 3.23645 15.0413 3.16895 15.2268 3.16895C15.4067 3.16895 15.5922 3.23639 15.5922 3.39386V6.63787H16.9641C17.1102 6.63787 17.1833 6.79528 17.1833 6.95833C17.1833 7.11574 17.1102 7.2788 16.9641 7.2788H15.1818Z" fill="black"/>
<path d="M20.8325 7.27319C20.1523 7.25631 19.6406 6.89086 19.6406 6.57604C19.6406 6.41863 19.7812 6.18243 19.9554 6.18243C20.1691 6.18243 20.3378 6.54793 20.8325 6.60409V5.48528C20.3209 5.29412 19.7418 5.0749 19.7418 4.35523C19.7418 3.64121 20.2703 3.33198 20.8325 3.25889V3.10147C20.8325 3.02838 20.9168 2.96094 21.0237 2.96094C21.1192 2.96094 21.2149 3.02838 21.2149 3.10147V3.24765C21.5803 3.25889 22.1763 3.36567 22.1763 3.69178C22.1763 3.82109 22.0863 4.0797 21.8783 4.0797C21.7209 4.0797 21.5915 3.89982 21.2149 3.87171V4.86122C21.7152 5.04679 22.2774 5.29976 22.2774 6.06436C22.2774 6.75586 21.8446 7.15506 21.2149 7.25626V7.4306C21.2149 7.50369 21.1192 7.57114 21.0237 7.57114C20.9168 7.57114 20.8325 7.50369 20.8325 7.4306V7.27319ZM20.8775 4.73756V3.88864C20.5964 3.93368 20.4277 4.06857 20.4277 4.2822C20.4277 4.52957 20.6189 4.63636 20.8775 4.73756ZM21.1698 5.62028V6.59855C21.4172 6.54798 21.5915 6.4018 21.5915 6.13755C21.5915 5.86207 21.4116 5.72712 21.1698 5.62028Z" fill="black"/>
<path d="M17.7005 11.5547H7.51074C7.29232 11.5547 7.11523 11.7317 7.11523 11.9502C7.11523 12.1687 7.29232 12.3457 7.51074 12.3457H17.7005C17.9189 12.3457 18.096 12.1687 18.096 11.9502C18.096 11.7317 17.9189 11.5547 17.7005 11.5547Z" fill="black"/>
<path d="M17.7005 14.8457H7.51074C7.29232 14.8457 7.11523 15.0227 7.11523 15.2412C7.11523 15.4597 7.29232 15.6367 7.51074 15.6367H17.7005C17.9189 15.6367 18.096 15.4597 18.096 15.2412C18.096 15.0227 17.9189 14.8457 17.7005 14.8457Z" fill="black"/>
<path d="M17.7005 18.1357H7.51074C7.29232 18.1357 7.11523 18.3128 7.11523 18.5312C7.11523 18.7497 7.29232 18.9268 7.51074 18.9268H17.7005C17.9189 18.9268 18.096 18.7497 18.096 18.5312C18.096 18.3128 17.9189 18.1357 17.7005 18.1357Z" fill="black"/>
<path d="M17.7005 21.4258H7.51074C7.29232 21.4258 7.11523 21.6028 7.11523 21.8213C7.11523 22.0398 7.29232 22.2168 7.51074 22.2168H17.7005C17.9189 22.2168 18.096 22.0398 18.096 21.8213C18.096 21.6028 17.9189 21.4258 17.7005 21.4258Z" fill="black"/>
<path d="M22.135 11.5547H19.5713C19.3529 11.5547 19.1758 11.7317 19.1758 11.9502C19.1758 12.1687 19.3529 12.3457 19.5713 12.3457H22.135C22.3534 12.3457 22.5305 12.1687 22.5305 11.9502C22.5305 11.7317 22.3534 11.5547 22.135 11.5547Z" fill="black"/>
<path d="M22.135 14.8457H19.5713C19.3529 14.8457 19.1758 15.0227 19.1758 15.2412C19.1758 15.4597 19.3529 15.6367 19.5713 15.6367H22.135C22.3534 15.6367 22.5305 15.4597 22.5305 15.2412C22.5305 15.0227 22.3534 14.8457 22.135 14.8457Z" fill="black"/>
<path d="M22.135 18.1357H19.5713C19.3529 18.1357 19.1758 18.3128 19.1758 18.5312C19.1758 18.7497 19.3529 18.9268 19.5713 18.9268H22.135C22.3534 18.9268 22.5305 18.7497 22.5305 18.5312C22.5305 18.3128 22.3534 18.1357 22.135 18.1357Z" fill="black"/>
<path d="M23.1817 0H3.74681C2.60269 0 1.67188 0.930814 1.67188 2.07489V19.2484C1.67188 20.1834 2.43252 20.944 3.36755 20.944H3.56831C3.78673 20.944 3.96382 20.767 3.96382 20.5485C3.96382 20.33 3.78673 20.153 3.56831 20.153H3.36755C2.86873 20.153 2.46289 19.7472 2.46289 19.2484V2.07489C2.46289 1.36693 3.03886 0.790963 3.74681 0.790963C4.45477 0.790963 5.03074 1.36687 5.03074 2.07489V25.8356C5.03074 26.2043 5.28117 26.5216 5.63971 26.6073L7.19237 26.9783C7.31298 27.0072 7.44049 27.0071 7.56114 26.9783L9.3278 26.5564L11.0931 26.9783C11.2138 27.0072 11.3413 27.0071 11.462 26.9783L13.2284 26.5564L14.994 26.9783C15.1146 27.0072 15.2421 27.0071 15.3628 26.9783L17.1295 26.5564L18.8952 26.9783C19.0159 27.0072 19.1433 27.0071 19.264 26.9783L21.0308 26.5564L22.7964 26.9782C22.8568 26.9927 22.919 26.9999 22.9811 26.9999C23.0432 26.9999 23.1052 26.9927 23.1655 26.9783L24.7185 26.6073C25.077 26.5216 25.3275 26.2043 25.3275 25.8356V2.14566C25.3274 0.962508 24.3648 0 23.1817 0ZM24.5345 25.838L22.9804 26.209L21.2145 25.7871C21.0939 25.7582 20.9664 25.7582 20.8457 25.7871L19.079 26.209L17.3133 25.7871C17.1926 25.7583 17.0651 25.7583 16.9445 25.7871L15.1778 26.209L13.4121 25.7871C13.2915 25.7583 13.164 25.7584 13.0434 25.7871L11.277 26.209L9.51163 25.7871C9.4513 25.7727 9.38934 25.7655 9.32727 25.7655C9.26526 25.7655 9.20319 25.7728 9.14286 25.7871L7.37621 26.209L5.82175 25.8357V2.07489C5.82175 2.04161 5.82081 2.00855 5.81922 1.97559C5.8187 1.96488 5.81785 1.95428 5.81717 1.94363C5.81579 1.92138 5.81416 1.89918 5.8121 1.87708C5.81094 1.86479 5.80952 1.85261 5.80815 1.84043C5.80583 1.81992 5.80324 1.79945 5.80034 1.7791C5.79855 1.76676 5.79676 1.75447 5.79475 1.74224C5.79143 1.72167 5.78769 1.70121 5.78378 1.6808C5.78157 1.66941 5.77951 1.65797 5.77709 1.64663C5.77218 1.62327 5.7667 1.60007 5.761 1.57702C5.75905 1.56911 5.75737 1.5611 5.75531 1.55319C5.74735 1.52249 5.73864 1.49207 5.72931 1.4619C5.72694 1.45431 5.7243 1.44687 5.72182 1.43933C5.71455 1.41676 5.707 1.39424 5.69899 1.37199C5.69509 1.36118 5.69087 1.35047 5.68681 1.33977C5.67964 1.32094 5.6723 1.30217 5.66461 1.28361C5.65991 1.27222 5.65506 1.26093 5.65016 1.2497C5.64235 1.23172 5.63423 1.21389 5.6259 1.19617C5.62078 1.18526 5.61567 1.17434 5.61034 1.16353C5.60117 1.14481 5.59157 1.12635 5.58181 1.10795C5.57691 1.09872 5.57221 1.08939 5.5672 1.08021C5.55318 1.05463 5.53868 1.02943 5.52365 1.00454C5.52259 1.00285 5.5217 1.00106 5.52064 0.999369C5.50456 0.972949 5.48779 0.946951 5.47054 0.921322C5.4649 0.912937 5.45899 0.904764 5.45325 0.896484C5.44122 0.879187 5.42909 0.861943 5.4166 0.845016C5.40969 0.835629 5.40257 0.8264 5.3955 0.817172C5.38886 0.808471 5.38248 0.799611 5.37573 0.791068H23.1817C23.9287 0.791068 24.5364 1.39878 24.5364 2.14576L24.5345 25.838Z" fill="black"/>
</svg>
