<svg width="24" height="24" viewBox="0 0 24 24" fill="none" xmlns="http://www.w3.org/2000/svg">
<g clip-path="url(#clip0_855_4638)">
<path d="M0 18V23C0 23.552 0.448 24 1 24H6C6.552 24 7 23.552 7 23V18C7 17.448 6.552 17 6 17H1C0.448 17 0 17.448 0 18Z" fill="#282627"/>
<path d="M6 0H1C0.448 0 0 0.448 0 1V6C0 6.552 0.448 7 1 7H6C6.552 7 7 6.552 7 6V1C7 0.448 6.552 0 6 0Z" fill="#282627"/>
<path d="M6 8.5H1C0.448 8.5 0 8.948 0 9.5V14.5C0 15.052 0.448 15.5 1 15.5H6C6.552 15.5 7 15.052 7 14.5V9.5C7 8.948 6.552 8.5 6 8.5Z" fill="#282627"/>
<path d="M23 0H9.5C8.948 0 8.5 0.448 8.5 1V6C8.5 6.552 8.948 7 9.5 7H23C23.552 7 24 6.552 24 6V1C24 0.448 23.552 0 23 0Z" fill="#282627"/>
<path d="M9.5 15.5H23C23.552 15.5 24 15.052 24 14.5V9.5C24 8.948 23.552 8.5 23 8.5H9.5C8.948 8.5 8.5 8.948 8.5 9.5V14.5C8.5 15.052 8.948 15.5 9.5 15.5Z" fill="#282627"/>
<path d="M9.5 24H23C23.552 24 24 23.552 24 23V18C24 17.448 23.552 17 23 17H9.5C8.948 17 8.5 17.448 8.5 18V23C8.5 23.552 8.948 24 9.5 24Z" fill="#282627"/>
</g>
<defs>
<clipPath id="clip0_855_4638">
<rect width="24" height="24" fill="white"/>
</clipPath>
</defs>
</svg>
