<svg width="12" height="12" viewBox="0 0 12 12" fill="none" xmlns="http://www.w3.org/2000/svg">
<path d="M10.642 4.1378L7.66664 3.70538L6.33656 1.00889C6.30024 0.935063 6.24047 0.875297 6.16664 0.838969C5.98149 0.747563 5.75649 0.823735 5.66391 1.00889L4.33383 3.70538L1.35844 4.1378C1.27641 4.14952 1.20141 4.18819 1.14399 4.24678C1.07457 4.31813 1.03631 4.41413 1.03763 4.51367C1.03895 4.61321 1.07973 4.70815 1.15102 4.77764L3.30375 6.87647L2.79516 9.84014C2.78323 9.90908 2.79086 9.97999 2.81718 10.0448C2.8435 10.1096 2.88746 10.1658 2.94407 10.2069C3.00068 10.248 3.06767 10.2725 3.13746 10.2774C3.20725 10.2824 3.27704 10.2677 3.33891 10.2351L6.00024 8.83584L8.66156 10.2351C8.73422 10.2737 8.8186 10.2866 8.89946 10.2726C9.10336 10.2374 9.24047 10.044 9.20531 9.84014L8.69672 6.87647L10.8495 4.77764C10.908 4.72022 10.9467 4.64522 10.9584 4.56319C10.9901 4.35811 10.8471 4.16827 10.642 4.1378Z" fill="#B2B2B2"/>
</svg>
