<svg width="20" height="20" viewBox="0 0 20 20" fill="none" xmlns="http://www.w3.org/2000/svg">
<g clip-path="url(#clip0_666_4413)">
<path d="M3.607 13.9641H1.17843C1.01741 13.9641 0.862978 14.0281 0.749117 14.142C0.635256 14.2558 0.571289 14.4103 0.571289 14.5713L0.571289 16.9999C0.571289 17.1609 0.635256 17.3153 0.749117 17.4292C0.862978 17.543 1.01741 17.607 1.17843 17.607H3.607C3.76803 17.607 3.92246 17.543 4.03632 17.4292C4.15018 17.3153 4.21415 17.1609 4.21415 16.9999V14.5713C4.21415 14.4103 4.15018 14.2558 4.03632 14.142C3.92246 14.0281 3.76803 13.9641 3.607 13.9641ZM3.607 1.82129H1.17843C1.01741 1.82129 0.862978 1.88526 0.749117 1.99912C0.635256 2.11298 0.571289 2.26741 0.571289 2.42843L0.571289 4.857C0.571289 5.01803 0.635256 5.17246 0.749117 5.28632C0.862978 5.40018 1.01741 5.46415 1.17843 5.46415H3.607C3.76803 5.46415 3.92246 5.40018 4.03632 5.28632C4.15018 5.17246 4.21415 5.01803 4.21415 4.857V2.42843C4.21415 2.26741 4.15018 2.11298 4.03632 1.99912C3.92246 1.88526 3.76803 1.82129 3.607 1.82129ZM3.607 7.89272H1.17843C1.01741 7.89272 0.862978 7.95668 0.749117 8.07055C0.635256 8.18441 0.571289 8.33884 0.571289 8.49986L0.571289 10.9284C0.571289 11.0895 0.635256 11.2439 0.749117 11.3577C0.862978 11.4716 1.01741 11.5356 1.17843 11.5356H3.607C3.76803 11.5356 3.92246 11.4716 4.03632 11.3577C4.15018 11.2439 4.21415 11.0895 4.21415 10.9284V8.49986C4.21415 8.33884 4.15018 8.18441 4.03632 8.07055C3.92246 7.95668 3.76803 7.89272 3.607 7.89272ZM19.3927 14.5713H7.24986C7.08884 14.5713 6.93441 14.6353 6.82055 14.7491C6.70668 14.863 6.64272 15.0174 6.64272 15.1784V16.3927C6.64272 16.5537 6.70668 16.7082 6.82055 16.822C6.93441 16.9359 7.08884 16.9999 7.24986 16.9999H19.3927C19.5537 16.9999 19.7082 16.9359 19.822 16.822C19.9359 16.7082 19.9999 16.5537 19.9999 16.3927V15.1784C19.9999 15.0174 19.9359 14.863 19.822 14.7491C19.7082 14.6353 19.5537 14.5713 19.3927 14.5713ZM19.3927 2.42843H7.24986C7.08884 2.42843 6.93441 2.4924 6.82055 2.60626C6.70668 2.72012 6.64272 2.87455 6.64272 3.03557V4.24986C6.64272 4.41088 6.70668 4.56531 6.82055 4.67918C6.93441 4.79304 7.08884 4.857 7.24986 4.857H19.3927C19.5537 4.857 19.7082 4.79304 19.822 4.67918C19.9359 4.56531 19.9999 4.41088 19.9999 4.24986V3.03557C19.9999 2.87455 19.9359 2.72012 19.822 2.60626C19.7082 2.4924 19.5537 2.42843 19.3927 2.42843ZM19.3927 8.49986H7.24986C7.08884 8.49986 6.93441 8.56383 6.82055 8.67769C6.70668 8.79155 6.64272 8.94598 6.64272 9.107V10.3213C6.64272 10.4823 6.70668 10.6367 6.82055 10.7506C6.93441 10.8645 7.08884 10.9284 7.24986 10.9284H19.3927C19.5537 10.9284 19.7082 10.8645 19.822 10.7506C19.9359 10.6367 19.9999 10.4823 19.9999 10.3213V9.107C19.9999 8.94598 19.9359 8.79155 19.822 8.67769C19.7082 8.56383 19.5537 8.49986 19.3927 8.49986Z" fill="#7F7F7F"/>
</g>
<defs>
<clipPath id="clip0_666_4413">
<rect width="19.4286" height="19.4286" fill="white" transform="translate(0.571289)"/>
</clipPath>
</defs>
</svg>
